<svg width="100" height="94.72882297142328" viewBox="0 0 100 94.72882297142328" class="css-1j8o68f"><g id="SvgjsG1826" featurekey="4K7G0D-0" transform="matrix(0.25467499365605273,0,0,0.25467499365605273,-3.5295405466636662,-8.66030795249248)" fill="#ffffff"><g xmlns="http://www.w3.org/2000/svg"><g><g><g><path fill="#ffffff" d="M389.585,127.657l-7.65-2.34c4.213-13.776,7.728-26.558,10.446-37.99l7.783,1.851      C397.406,100.774,393.847,113.72,389.585,127.657z"></path></g><g><path fill="#ffffff" d="M349.86,128.043l-7.369-3.112c5.913-14.002,11.805-26.993,17.509-38.611l7.182,3.526      C361.543,101.328,355.716,114.18,349.86,128.043z"></path></g><g><path fill="#ffffff" d="M367.182,89.846L360,86.32c8.043-16.377,15.574-29.684,21.78-38.479      c7.878-11.166,13.682-15.294,18.802-13.388c6.045,2.249,6.256,11.322,5.765,18.976c-0.569,8.859-2.649,20.887-6.183,35.749      l-7.783-1.851c8.041-33.819,6.107-43.032,5.305-45.086C395.534,43.375,386.662,50.178,367.182,89.846z"></path></g><g><path fill="#ffffff" d="M336.191,261.741l-6.883-4.078c11.82-19.952,20.051-40.082,34.027-77.657      c6.992-18.8,13.25-37.2,18.599-54.689l7.65,2.34c-5.396,17.639-11.704,36.19-18.751,55.138      C356.685,220.835,348.324,241.261,336.191,261.741z"></path></g></g><g><path fill="#ffffff" d="M21.859,77.283h-8v-0.39c0-8.822,7.409-16,16.517-16h322.246v8H30.376c-4.696,0-8.517,3.589-8.517,8     V77.283z"></path></g><g><path fill="#ffffff" d="M231.312,405.965l8.489-8.465c0.085-0.086,8.626-8.637,12.565-15.614l6.967,3.934     c-1.328,2.352-3.054,4.799-4.835,7.088c6.574-2.36,15.294-6.222,25.008-12.426l4.307,6.742     c-22.542,14.396-39.903,16.968-40.631,17.07L231.312,405.965z"></path></g><g><path fill="#ffffff" d="M283.812,387.224l-4.307-6.742c1.229-0.785,2.271-1.474,3.275-2.166     c28.474-19.61,36.323-41.42,32.305-89.756l-0.032-0.392l0.587-5.176l-24.084-8.956l0.59-3.291     c4.016-22.374,18.716-63.481,34.003-104.571c5.272-14.175,10.771-28.051,16.342-41.244l7.369,3.112     c-5.526,13.086-10.98,26.854-16.213,40.92c-14.428,38.779-28.317,77.52-32.989,99.922l23.637,8.79l-1.204,10.614     c4.177,50.927-4.874,75.334-35.771,96.613C286.236,385.65,285.122,386.388,283.812,387.224z"></path></g><g><path fill="#ffffff" d="M259.333,385.819l-6.967-3.934c4.928-8.729,7.547-22.894,7.784-42.104     c0.323-26.117,4.943-31.176,16.105-43.397c1.438-1.574,3.001-3.285,4.697-5.197l5.984,5.309     c-1.725,1.944-3.312,3.684-4.774,5.284c-10.82,11.847-13.729,15.03-14.013,38.102     C267.896,360.451,264.929,375.906,259.333,385.819z"></path></g><g><path fill="#ffffff" d="M385.34,387.853h-71.661v-8h71.661c4.411,0,8-3.589,8-8v-212.8h8v212.8     C401.34,380.675,394.162,387.853,385.34,387.853z"></path></g><g><path fill="#ffffff" d="M225.832,387.853H29.859c-8.822,0-16-7.178-16-16V99.297H331.54v8H21.859v264.556c0,4.411,3.589,8,8,8     h195.973V387.853z"></path></g><g><polygon fill="#ffffff" points="242.46,263.703 53.901,263.703 135.319,182.289 157.229,205.191 188.159,172.271      235.001,218.867 235.001,149.23 63.256,149.23 63.256,232.57 55.256,232.57 55.256,141.23 243.001,141.23 243.001,238.109      188.353,183.748 157.282,216.819 135.192,193.729 73.216,255.703 242.46,255.703    "></polygon></g><g><rect x="54.586" y="291.747" fill="#ffffff" width="188.038" height="8"></rect></g><g><rect x="54.586" y="311.759" fill="#ffffff" width="188.038" height="8"></rect></g><g><rect x="54.586" y="331.771" fill="#ffffff" width="109" height="8"></rect></g></g></g></g></svg>